<mxfile host="65bd71144e">
    <diagram id="SPkyLaEgQnrk9hGhipmy" name="Page-1">
        <mxGraphModel dx="732" dy="627" grid="1" gridSize="10" guides="1" tooltips="1" connect="1" arrows="1" fold="1" page="1" pageScale="1" pageWidth="850" pageHeight="1100" math="0" shadow="0">
            <root>
                <mxCell id="0"/>
                <mxCell id="1" parent="0"/>
                <mxCell id="2" value="Hello&amp;nbsp; World" style="rounded=0;whiteSpace=wrap;html=1;" vertex="1" parent="1">
                    <mxGeometry x="280" y="80" width="120" height="60" as="geometry"/>
                </mxCell>
                <mxCell id="3" value="" style="childLayout=tableLayout;recursiveResize=0;shadow=0;fillColor=none;strokeColor=#C0C0C0;" vertex="1" parent="1">
                    <mxGeometry x="170" y="240" width="180" height="140" as="geometry"/>
                </mxCell>
                <mxCell id="4" value="" style="shape=tableRow;horizontal=0;startSize=0;swimlaneHead=0;swimlaneBody=0;top=0;left=0;bottom=0;right=0;dropTarget=0;collapsible=0;recursiveResize=0;expand=0;fontStyle=0;fillColor=none;" vertex="1" parent="3">
                    <mxGeometry width="180" height="47" as="geometry"/>
                </mxCell>
                <mxCell id="5" value="Value 1" style="connectable=0;recursiveResize=0;strokeColor=none;fillColor=none;align=center;whiteSpace=wrap;html=1;" vertex="1" parent="4">
                    <mxGeometry width="60" height="47" as="geometry">
                        <mxRectangle width="60" height="47" as="alternateBounds"/>
                    </mxGeometry>
                </mxCell>
                <mxCell id="6" value="Value 2" style="connectable=0;recursiveResize=0;strokeColor=none;fillColor=none;align=center;whiteSpace=wrap;html=1;" vertex="1" parent="4">
                    <mxGeometry x="60" width="60" height="47" as="geometry">
                        <mxRectangle width="60" height="47" as="alternateBounds"/>
                    </mxGeometry>
                </mxCell>
                <mxCell id="7" value="Value 3" style="connectable=0;recursiveResize=0;strokeColor=none;fillColor=none;align=center;whiteSpace=wrap;html=1;" vertex="1" parent="4">
                    <mxGeometry x="120" width="60" height="47" as="geometry">
                        <mxRectangle width="60" height="47" as="alternateBounds"/>
                    </mxGeometry>
                </mxCell>
                <mxCell id="8" style="shape=tableRow;horizontal=0;startSize=0;swimlaneHead=0;swimlaneBody=0;top=0;left=0;bottom=0;right=0;dropTarget=0;collapsible=0;recursiveResize=0;expand=0;fontStyle=0;fillColor=none;" vertex="1" parent="3">
                    <mxGeometry y="47" width="180" height="46" as="geometry"/>
                </mxCell>
                <mxCell id="9" value="Value 4" style="connectable=0;recursiveResize=0;strokeColor=none;fillColor=none;align=center;whiteSpace=wrap;html=1;" vertex="1" parent="8">
                    <mxGeometry width="60" height="46" as="geometry">
                        <mxRectangle width="60" height="46" as="alternateBounds"/>
                    </mxGeometry>
                </mxCell>
                <mxCell id="10" value="Value 5" style="connectable=0;recursiveResize=0;strokeColor=none;fillColor=none;align=center;whiteSpace=wrap;html=1;" vertex="1" parent="8">
                    <mxGeometry x="60" width="60" height="46" as="geometry">
                        <mxRectangle width="60" height="46" as="alternateBounds"/>
                    </mxGeometry>
                </mxCell>
                <mxCell id="11" value="Value 6" style="connectable=0;recursiveResize=0;strokeColor=none;fillColor=none;align=center;whiteSpace=wrap;html=1;" vertex="1" parent="8">
                    <mxGeometry x="120" width="60" height="46" as="geometry">
                        <mxRectangle width="60" height="46" as="alternateBounds"/>
                    </mxGeometry>
                </mxCell>
                <mxCell id="12" style="shape=tableRow;horizontal=0;startSize=0;swimlaneHead=0;swimlaneBody=0;top=0;left=0;bottom=0;right=0;dropTarget=0;collapsible=0;recursiveResize=0;expand=0;fontStyle=0;fillColor=none;" vertex="1" parent="3">
                    <mxGeometry y="93" width="180" height="47" as="geometry"/>
                </mxCell>
                <mxCell id="13" value="Value 7" style="connectable=0;recursiveResize=0;strokeColor=none;fillColor=none;align=center;whiteSpace=wrap;html=1;" vertex="1" parent="12">
                    <mxGeometry width="60" height="47" as="geometry">
                        <mxRectangle width="60" height="47" as="alternateBounds"/>
                    </mxGeometry>
                </mxCell>
                <mxCell id="14" value="Value 8" style="connectable=0;recursiveResize=0;strokeColor=none;fillColor=none;align=center;whiteSpace=wrap;html=1;" vertex="1" parent="12">
                    <mxGeometry x="60" width="60" height="47" as="geometry">
                        <mxRectangle width="60" height="47" as="alternateBounds"/>
                    </mxGeometry>
                </mxCell>
                <mxCell id="15" value="Value 9" style="connectable=0;recursiveResize=0;strokeColor=none;fillColor=none;align=center;whiteSpace=wrap;html=1;" vertex="1" parent="12">
                    <mxGeometry x="120" width="60" height="47" as="geometry">
                        <mxRectangle width="60" height="47" as="alternateBounds"/>
                    </mxGeometry>
                </mxCell>
                <mxCell id="17" value="" style="endArrow=none;html=1;" edge="1" parent="1">
                    <mxGeometry width="50" height="50" relative="1" as="geometry">
                        <mxPoint x="250" y="230" as="sourcePoint"/>
                        <mxPoint x="330" y="150" as="targetPoint"/>
                        <Array as="points">
                            <mxPoint x="250" y="230"/>
                        </Array>
                    </mxGeometry>
                </mxCell>
                <mxCell id="18" value="Vertical Tree Layout" style="swimlane;startSize=20;horizontal=1;childLayout=treeLayout;horizontalTree=0;resizable=0;containerType=tree;fontSize=12;" vertex="1" parent="1">
                    <mxGeometry x="390" y="220" width="280" height="190" as="geometry"/>
                </mxCell>
                <mxCell id="19" value="Root" style="whiteSpace=wrap;html=1;" vertex="1" parent="18">
                    <mxGeometry x="90" y="40" width="100" height="40" as="geometry"/>
                </mxCell>
                <mxCell id="20" value="Child 1" style="whiteSpace=wrap;html=1;" vertex="1" parent="18">
                    <mxGeometry x="20" y="130" width="100" height="40" as="geometry"/>
                </mxCell>
                <mxCell id="21" value="" style="edgeStyle=elbowEdgeStyle;elbow=vertical;html=1;rounded=1;curved=0;sourcePerimeterSpacing=0;targetPerimeterSpacing=0;startSize=6;endSize=6;" edge="1" parent="18" source="19" target="20">
                    <mxGeometry relative="1" as="geometry"/>
                </mxCell>
                <mxCell id="22" value="Child 2" style="whiteSpace=wrap;html=1;" vertex="1" parent="18">
                    <mxGeometry x="160" y="130" width="100" height="40" as="geometry"/>
                </mxCell>
                <mxCell id="23" value="" style="edgeStyle=elbowEdgeStyle;elbow=vertical;html=1;rounded=1;curved=0;sourcePerimeterSpacing=0;targetPerimeterSpacing=0;startSize=6;endSize=6;" edge="1" parent="18" source="19" target="22">
                    <mxGeometry relative="1" as="geometry"/>
                </mxCell>
            </root>
        </mxGraphModel>
    </diagram>
</mxfile>